<svg xmlns="http://www.w3.org/2000/svg" viewBox="0 0 800 500" width="800" height="500" role="img"><rect width="800" height="500" fill="#0b0f0d"/><rect x="0" y="0" width="38" height="24" fill="rgb(34,40,36)"/><rect x="40" y="0" width="38" height="24" fill="rgb(43,49,45)"/><rect x="80" y="0" width="38" height="24" fill="rgb(34,40,36)"/><rect x="120" y="0" width="38" height="24" fill="rgb(34,40,36)"/><rect x="160" y="0" width="38" height="24" fill="rgb(31,37,33)"/><rect x="200" y="0" width="38" height="24" fill="rgb(26,32,28)"/><rect x="240" y="0" width="38" height="24" fill="rgb(27,33,29)"/><rect x="280" y="0" width="38" height="24" fill="rgb(39,45,41)"/><rect x="320" y="0" width="38" height="24" fill="rgb(40,46,42)"/><rect x="360" y="0" width="38" height="24" fill="rgb(37,43,39)"/><rect x="400" y="0" width="38" height="24" fill="rgb(28,34,30)"/><rect x="440" y="0" width="38" height="24" fill="rgb(43,49,45)"/><rect x="480" y="0" width="38" height="24" fill="rgb(39,45,41)"/><rect x="520" y="0" width="38" height="24" fill="rgb(32,38,34)"/><rect x="560" y="0" width="38" height="24" fill="rgb(26,32,28)"/><rect x="600" y="0" width="38" height="24" fill="rgb(32,38,34)"/><rect x="640" y="0" width="38" height="24" fill="rgb(34,40,36)"/><rect x="680" y="0" width="38" height="24" fill="rgb(32,38,34)"/><rect x="720" y="0" width="38" height="24" fill="rgb(27,33,29)"/><rect x="760" y="0" width="38" height="24" fill="rgb(29,35,31)"/><rect x="-20" y="26" width="38" height="24" fill="rgb(44,50,46)"/><rect x="20" y="26" width="38" height="24" fill="rgb(47,53,49)"/><rect x="60" y="26" width="38" height="24" fill="rgb(39,45,41)"/><rect x="100" y="26" width="38" height="24" fill="rgb(42,48,44)"/><rect x="140" y="26" width="38" height="24" fill="rgb(38,44,40)"/><rect x="180" y="26" width="38" height="24" fill="rgb(47,53,49)"/><rect x="220" y="26" width="38" height="24" fill="rgb(43,49,45)"/><rect x="260" y="26" width="38" height="24" fill="rgb(37,43,39)"/><rect x="300" y="26" width="38" height="24" fill="rgb(46,52,48)"/><rect x="340" y="26" width="38" height="24" fill="rgb(37,43,39)"/><rect x="380" y="26" width="38" height="24" fill="rgb(32,38,34)"/><rect x="420" y="26" width="38" height="24" fill="rgb(38,44,40)"/><rect x="460" y="26" width="38" height="24" fill="rgb(44,50,46)"/><rect x="500" y="26" width="38" height="24" fill="rgb(43,49,45)"/><rect x="540" y="26" width="38" height="24" fill="rgb(38,44,40)"/><rect x="580" y="26" width="38" height="24" fill="rgb(47,53,49)"/><rect x="620" y="26" width="38" height="24" fill="rgb(47,53,49)"/><rect x="660" y="26" width="38" height="24" fill="rgb(43,49,45)"/><rect x="700" y="26" width="38" height="24" fill="rgb(33,39,35)"/><rect x="740" y="26" width="38" height="24" fill="rgb(32,38,34)"/><rect x="0" y="52" width="38" height="24" fill="rgb(31,37,33)"/><rect x="40" y="52" width="38" height="24" fill="rgb(32,38,34)"/><rect x="80" y="52" width="38" height="24" fill="rgb(37,43,39)"/><rect x="120" y="52" width="38" height="24" fill="rgb(35,41,37)"/><rect x="160" y="52" width="38" height="24" fill="rgb(44,50,46)"/><rect x="200" y="52" width="38" height="24" fill="rgb(33,39,35)"/><rect x="240" y="52" width="38" height="24" fill="rgb(32,38,34)"/><rect x="280" y="52" width="38" height="24" fill="rgb(33,39,35)"/><rect x="320" y="52" width="38" height="24" fill="rgb(33,39,35)"/><rect x="360" y="52" width="38" height="24" fill="rgb(38,44,40)"/><rect x="400" y="52" width="38" height="24" fill="rgb(35,41,37)"/><rect x="440" y="52" width="38" height="24" fill="rgb(46,52,48)"/><rect x="480" y="52" width="38" height="24" fill="rgb(30,36,32)"/><rect x="520" y="52" width="38" height="24" fill="rgb(46,52,48)"/><rect x="560" y="52" width="38" height="24" fill="rgb(32,38,34)"/><rect x="600" y="52" width="38" height="24" fill="rgb(47,53,49)"/><rect x="640" y="52" width="38" height="24" fill="rgb(27,33,29)"/><rect x="680" y="52" width="38" height="24" fill="rgb(40,46,42)"/><rect x="720" y="52" width="38" height="24" fill="rgb(38,44,40)"/><rect x="760" y="52" width="38" height="24" fill="rgb(33,39,35)"/><rect x="-20" y="78" width="38" height="24" fill="rgb(30,36,32)"/><rect x="20" y="78" width="38" height="24" fill="rgb(42,48,44)"/><rect x="60" y="78" width="38" height="24" fill="rgb(39,45,41)"/><rect x="100" y="78" width="38" height="24" fill="rgb(34,40,36)"/><rect x="140" y="78" width="38" height="24" fill="rgb(39,45,41)"/><rect x="180" y="78" width="38" height="24" fill="rgb(47,53,49)"/><rect x="220" y="78" width="38" height="24" fill="rgb(35,41,37)"/><rect x="260" y="78" width="38" height="24" fill="rgb(32,38,34)"/><rect x="300" y="78" width="38" height="24" fill="rgb(47,53,49)"/><rect x="340" y="78" width="38" height="24" fill="rgb(42,48,44)"/><rect x="380" y="78" width="38" height="24" fill="rgb(42,48,44)"/><rect x="420" y="78" width="38" height="24" fill="rgb(40,46,42)"/><rect x="460" y="78" width="38" height="24" fill="rgb(40,46,42)"/><rect x="500" y="78" width="38" height="24" fill="rgb(36,42,38)"/><rect x="540" y="78" width="38" height="24" fill="rgb(33,39,35)"/><rect x="580" y="78" width="38" height="24" fill="rgb(43,49,45)"/><rect x="620" y="78" width="38" height="24" fill="rgb(46,52,48)"/><rect x="660" y="78" width="38" height="24" fill="rgb(31,37,33)"/><rect x="700" y="78" width="38" height="24" fill="rgb(43,49,45)"/><rect x="740" y="78" width="38" height="24" fill="rgb(39,45,41)"/><rect x="0" y="104" width="38" height="24" fill="rgb(27,33,29)"/><rect x="40" y="104" width="38" height="24" fill="rgb(31,37,33)"/><rect x="80" y="104" width="38" height="24" fill="rgb(31,37,33)"/><rect x="120" y="104" width="38" height="24" fill="rgb(30,36,32)"/><rect x="160" y="104" width="38" height="24" fill="rgb(27,33,29)"/><rect x="200" y="104" width="38" height="24" fill="rgb(37,43,39)"/><rect x="240" y="104" width="38" height="24" fill="rgb(31,37,33)"/><rect x="280" y="104" width="38" height="24" fill="rgb(26,32,28)"/><rect x="320" y="104" width="38" height="24" fill="rgb(35,41,37)"/><rect x="360" y="104" width="38" height="24" fill="rgb(31,37,33)"/><rect x="400" y="104" width="38" height="24" fill="rgb(33,39,35)"/><rect x="440" y="104" width="38" height="24" fill="rgb(47,53,49)"/><rect x="480" y="104" width="38" height="24" fill="rgb(42,48,44)"/><rect x="520" y="104" width="38" height="24" fill="rgb(45,51,47)"/><rect x="560" y="104" width="38" height="24" fill="rgb(38,44,40)"/><rect x="600" y="104" width="38" height="24" fill="rgb(28,34,30)"/><rect x="640" y="104" width="38" height="24" fill="rgb(38,44,40)"/><rect x="680" y="104" width="38" height="24" fill="rgb(46,52,48)"/><rect x="720" y="104" width="38" height="24" fill="rgb(28,34,30)"/><rect x="760" y="104" width="38" height="24" fill="rgb(37,43,39)"/><rect x="-20" y="130" width="38" height="24" fill="rgb(31,37,33)"/><rect x="20" y="130" width="38" height="24" fill="rgb(33,39,35)"/><rect x="60" y="130" width="38" height="24" fill="rgb(42,48,44)"/><rect x="100" y="130" width="38" height="24" fill="rgb(27,33,29)"/><rect x="140" y="130" width="38" height="24" fill="rgb(41,47,43)"/><rect x="180" y="130" width="38" height="24" fill="rgb(33,39,35)"/><rect x="220" y="130" width="38" height="24" fill="rgb(28,34,30)"/><rect x="260" y="130" width="38" height="24" fill="rgb(35,41,37)"/><rect x="300" y="130" width="38" height="24" fill="rgb(29,35,31)"/><rect x="340" y="130" width="38" height="24" fill="rgb(37,43,39)"/><rect x="380" y="130" width="38" height="24" fill="rgb(28,34,30)"/><rect x="420" y="130" width="38" height="24" fill="rgb(42,48,44)"/><rect x="460" y="130" width="38" height="24" fill="rgb(32,38,34)"/><rect x="500" y="130" width="38" height="24" fill="rgb(35,41,37)"/><rect x="540" y="130" width="38" height="24" fill="rgb(29,35,31)"/><rect x="580" y="130" width="38" height="24" fill="rgb(35,41,37)"/><rect x="620" y="130" width="38" height="24" fill="rgb(34,40,36)"/><rect x="660" y="130" width="38" height="24" fill="rgb(41,47,43)"/><rect x="700" y="130" width="38" height="24" fill="rgb(38,44,40)"/><rect x="740" y="130" width="38" height="24" fill="rgb(37,43,39)"/><rect x="0" y="156" width="38" height="24" fill="rgb(36,42,38)"/><rect x="40" y="156" width="38" height="24" fill="rgb(45,51,47)"/><rect x="80" y="156" width="38" height="24" fill="rgb(34,40,36)"/><rect x="120" y="156" width="38" height="24" fill="rgb(41,47,43)"/><rect x="160" y="156" width="38" height="24" fill="rgb(27,33,29)"/><rect x="200" y="156" width="38" height="24" fill="rgb(31,37,33)"/><rect x="240" y="156" width="38" height="24" fill="rgb(39,45,41)"/><rect x="280" y="156" width="38" height="24" fill="rgb(29,35,31)"/><rect x="320" y="156" width="38" height="24" fill="rgb(26,32,28)"/><rect x="360" y="156" width="38" height="24" fill="rgb(35,41,37)"/><rect x="400" y="156" width="38" height="24" fill="rgb(47,53,49)"/><rect x="440" y="156" width="38" height="24" fill="rgb(35,41,37)"/><rect x="480" y="156" width="38" height="24" fill="rgb(26,32,28)"/><rect x="520" y="156" width="38" height="24" fill="rgb(32,38,34)"/><rect x="560" y="156" width="38" height="24" fill="rgb(33,39,35)"/><rect x="600" y="156" width="38" height="24" fill="rgb(43,49,45)"/><rect x="640" y="156" width="38" height="24" fill="rgb(40,46,42)"/><rect x="680" y="156" width="38" height="24" fill="rgb(34,40,36)"/><rect x="720" y="156" width="38" height="24" fill="rgb(45,51,47)"/><rect x="760" y="156" width="38" height="24" fill="rgb(33,39,35)"/><rect x="-20" y="182" width="38" height="24" fill="rgb(46,52,48)"/><rect x="20" y="182" width="38" height="24" fill="rgb(44,50,46)"/><rect x="60" y="182" width="38" height="24" fill="rgb(46,52,48)"/><rect x="100" y="182" width="38" height="24" fill="rgb(36,42,38)"/><rect x="140" y="182" width="38" height="24" fill="rgb(41,47,43)"/><rect x="180" y="182" width="38" height="24" fill="rgb(32,38,34)"/><rect x="220" y="182" width="38" height="24" fill="rgb(39,45,41)"/><rect x="260" y="182" width="38" height="24" fill="rgb(31,37,33)"/><rect x="300" y="182" width="38" height="24" fill="rgb(35,41,37)"/><rect x="340" y="182" width="38" height="24" fill="rgb(44,50,46)"/><rect x="380" y="182" width="38" height="24" fill="rgb(32,38,34)"/><rect x="420" y="182" width="38" height="24" fill="rgb(27,33,29)"/><rect x="460" y="182" width="38" height="24" fill="rgb(41,47,43)"/><rect x="500" y="182" width="38" height="24" fill="rgb(33,39,35)"/><rect x="540" y="182" width="38" height="24" fill="rgb(39,45,41)"/><rect x="580" y="182" width="38" height="24" fill="rgb(40,46,42)"/><rect x="620" y="182" width="38" height="24" fill="rgb(43,49,45)"/><rect x="660" y="182" width="38" height="24" fill="rgb(27,33,29)"/><rect x="700" y="182" width="38" height="24" fill="rgb(26,32,28)"/><rect x="740" y="182" width="38" height="24" fill="rgb(33,39,35)"/><rect x="0" y="208" width="38" height="24" fill="rgb(27,33,29)"/><rect x="40" y="208" width="38" height="24" fill="rgb(33,39,35)"/><rect x="80" y="208" width="38" height="24" fill="rgb(32,38,34)"/><rect x="120" y="208" width="38" height="24" fill="rgb(29,35,31)"/><rect x="160" y="208" width="38" height="24" fill="rgb(31,37,33)"/><rect x="200" y="208" width="38" height="24" fill="rgb(28,34,30)"/><rect x="240" y="208" width="38" height="24" fill="rgb(37,43,39)"/><rect x="280" y="208" width="38" height="24" fill="rgb(43,49,45)"/><rect x="320" y="208" width="38" height="24" fill="rgb(38,44,40)"/><rect x="360" y="208" width="38" height="24" fill="rgb(32,38,34)"/><rect x="400" y="208" width="38" height="24" fill="rgb(27,33,29)"/><rect x="440" y="208" width="38" height="24" fill="rgb(46,52,48)"/><rect x="480" y="208" width="38" height="24" fill="rgb(35,41,37)"/><rect x="520" y="208" width="38" height="24" fill="rgb(27,33,29)"/><rect x="560" y="208" width="38" height="24" fill="rgb(27,33,29)"/><rect x="600" y="208" width="38" height="24" fill="rgb(41,47,43)"/><rect x="640" y="208" width="38" height="24" fill="rgb(34,40,36)"/><rect x="680" y="208" width="38" height="24" fill="rgb(29,35,31)"/><rect x="720" y="208" width="38" height="24" fill="rgb(26,32,28)"/><rect x="760" y="208" width="38" height="24" fill="rgb(46,52,48)"/><rect x="-20" y="234" width="38" height="24" fill="rgb(38,44,40)"/><rect x="20" y="234" width="38" height="24" fill="rgb(40,46,42)"/><rect x="60" y="234" width="38" height="24" fill="rgb(35,41,37)"/><rect x="100" y="234" width="38" height="24" fill="rgb(41,47,43)"/><rect x="140" y="234" width="38" height="24" fill="rgb(29,35,31)"/><rect x="180" y="234" width="38" height="24" fill="rgb(43,49,45)"/><rect x="220" y="234" width="38" height="24" fill="rgb(39,45,41)"/><rect x="260" y="234" width="38" height="24" fill="rgb(43,49,45)"/><rect x="300" y="234" width="38" height="24" fill="rgb(35,41,37)"/><rect x="340" y="234" width="38" height="24" fill="rgb(33,39,35)"/><rect x="380" y="234" width="38" height="24" fill="rgb(26,32,28)"/><rect x="420" y="234" width="38" height="24" fill="rgb(36,42,38)"/><rect x="460" y="234" width="38" height="24" fill="rgb(32,38,34)"/><rect x="500" y="234" width="38" height="24" fill="rgb(46,52,48)"/><rect x="540" y="234" width="38" height="24" fill="rgb(40,46,42)"/><rect x="580" y="234" width="38" height="24" fill="rgb(33,39,35)"/><rect x="620" y="234" width="38" height="24" fill="rgb(39,45,41)"/><rect x="660" y="234" width="38" height="24" fill="rgb(35,41,37)"/><rect x="700" y="234" width="38" height="24" fill="rgb(30,36,32)"/><rect x="740" y="234" width="38" height="24" fill="rgb(42,48,44)"/><rect x="0" y="260" width="38" height="24" fill="rgb(44,50,46)"/><rect x="40" y="260" width="38" height="24" fill="rgb(37,43,39)"/><rect x="80" y="260" width="38" height="24" fill="rgb(43,49,45)"/><rect x="120" y="260" width="38" height="24" fill="rgb(35,41,37)"/><rect x="160" y="260" width="38" height="24" fill="rgb(36,42,38)"/><rect x="200" y="260" width="38" height="24" fill="rgb(31,37,33)"/><rect x="240" y="260" width="38" height="24" fill="rgb(39,45,41)"/><rect x="280" y="260" width="38" height="24" fill="rgb(47,53,49)"/><rect x="320" y="260" width="38" height="24" fill="rgb(47,53,49)"/><rect x="360" y="260" width="38" height="24" fill="rgb(26,32,28)"/><rect x="400" y="260" width="38" height="24" fill="rgb(30,36,32)"/><rect x="440" y="260" width="38" height="24" fill="rgb(47,53,49)"/><rect x="480" y="260" width="38" height="24" fill="rgb(30,36,32)"/><rect x="520" y="260" width="38" height="24" fill="rgb(45,51,47)"/><rect x="560" y="260" width="38" height="24" fill="rgb(31,37,33)"/><rect x="600" y="260" width="38" height="24" fill="rgb(29,35,31)"/><rect x="640" y="260" width="38" height="24" fill="rgb(31,37,33)"/><rect x="680" y="260" width="38" height="24" fill="rgb(44,50,46)"/><rect x="720" y="260" width="38" height="24" fill="rgb(32,38,34)"/><rect x="760" y="260" width="38" height="24" fill="rgb(41,47,43)"/><rect x="-20" y="286" width="38" height="24" fill="rgb(29,35,31)"/><rect x="20" y="286" width="38" height="24" fill="rgb(41,47,43)"/><rect x="60" y="286" width="38" height="24" fill="rgb(34,40,36)"/><rect x="100" y="286" width="38" height="24" fill="rgb(31,37,33)"/><rect x="140" y="286" width="38" height="24" fill="rgb(46,52,48)"/><rect x="180" y="286" width="38" height="24" fill="rgb(27,33,29)"/><rect x="220" y="286" width="38" height="24" fill="rgb(38,44,40)"/><rect x="260" y="286" width="38" height="24" fill="rgb(29,35,31)"/><rect x="300" y="286" width="38" height="24" fill="rgb(38,44,40)"/><rect x="340" y="286" width="38" height="24" fill="rgb(32,38,34)"/><rect x="380" y="286" width="38" height="24" fill="rgb(26,32,28)"/><rect x="420" y="286" width="38" height="24" fill="rgb(37,43,39)"/><rect x="460" y="286" width="38" height="24" fill="rgb(28,34,30)"/><rect x="500" y="286" width="38" height="24" fill="rgb(40,46,42)"/><rect x="540" y="286" width="38" height="24" fill="rgb(28,34,30)"/><rect x="580" y="286" width="38" height="24" fill="rgb(46,52,48)"/><rect x="620" y="286" width="38" height="24" fill="rgb(30,36,32)"/><rect x="660" y="286" width="38" height="24" fill="rgb(41,47,43)"/><rect x="700" y="286" width="38" height="24" fill="rgb(33,39,35)"/><rect x="740" y="286" width="38" height="24" fill="rgb(32,38,34)"/><path d="M240 330 L240 190 Q400 90 560 190 L560 330 Z" fill="#0a0e0c" opacity="0.95"/><path d="M240 330 L240 190 Q400 90 560 190 L560 330" fill="none" stroke="#a462f0" stroke-width="6" opacity="0.65"/><rect x="300" y="205" width="200" height="120" fill="#121815"/><rect x="300" y="255" width="200" height="20" fill="#a462f0" opacity="0.9"/><rect x="322" y="222" width="46" height="28" fill="#0f1512" stroke="#a462f0" stroke-width="2" opacity="0.8"/><rect x="432" y="222" width="46" height="28" fill="#0f1512" stroke="#a462f0" stroke-width="2" opacity="0.8"/><rect x="318" y="292" width="30" height="18" fill="#fff7d0" opacity="0.9"/><rect x="452" y="292" width="30" height="18" fill="#fff7d0" opacity="0.9"/><rect x="0" y="330" width="800" height="170" fill="#1a211d"/><rect x="0" y="330" width="800" height="12" fill="#a462f0" opacity="0.55"/><rect x="0" y="346" width="38" height="150" fill="rgb(32,37,35)"/><rect x="40" y="348" width="38" height="150" fill="rgb(40,45,43)"/><rect x="80" y="346" width="38" height="150" fill="rgb(36,41,39)"/><rect x="120" y="348" width="38" height="150" fill="rgb(43,48,46)"/><rect x="160" y="346" width="38" height="150" fill="rgb(43,48,46)"/><rect x="200" y="348" width="38" height="150" fill="rgb(45,50,48)"/><rect x="240" y="346" width="38" height="150" fill="rgb(47,52,50)"/><rect x="280" y="348" width="38" height="150" fill="rgb(47,52,50)"/><rect x="320" y="346" width="38" height="150" fill="rgb(35,40,38)"/><rect x="360" y="348" width="38" height="150" fill="rgb(38,43,41)"/><rect x="400" y="346" width="38" height="150" fill="rgb(33,38,36)"/><rect x="440" y="348" width="38" height="150" fill="rgb(36,41,39)"/><rect x="480" y="346" width="38" height="150" fill="rgb(30,35,33)"/><rect x="520" y="348" width="38" height="150" fill="rgb(38,43,41)"/><rect x="560" y="346" width="38" height="150" fill="rgb(31,36,34)"/><rect x="600" y="348" width="38" height="150" fill="rgb(47,52,50)"/><rect x="640" y="346" width="38" height="150" fill="rgb(31,36,34)"/><rect x="680" y="348" width="38" height="150" fill="rgb(30,35,33)"/><rect x="720" y="346" width="38" height="150" fill="rgb(37,42,40)"/><rect x="760" y="348" width="38" height="150" fill="rgb(47,52,50)"/><rect x="0" y="420" width="800" height="10" fill="#f5c542" opacity="0.55"/><rect x="60" y="40" width="16" height="26" fill="#a462f0" opacity="0.95"/><circle cx="68" cy="53" r="46" fill="#a462f0" opacity="0.12"/><rect x="66" y="0" width="4" height="40" fill="#2a332e"/><rect x="230" y="40" width="16" height="26" fill="#a462f0" opacity="0.95"/><circle cx="238" cy="53" r="46" fill="#a462f0" opacity="0.12"/><rect x="236" y="0" width="4" height="40" fill="#2a332e"/><rect x="400" y="40" width="16" height="26" fill="#a462f0" opacity="0.95"/><circle cx="408" cy="53" r="46" fill="#a462f0" opacity="0.12"/><rect x="406" y="0" width="4" height="40" fill="#2a332e"/><rect x="570" y="40" width="16" height="26" fill="#a462f0" opacity="0.95"/><circle cx="578" cy="53" r="46" fill="#a462f0" opacity="0.12"/><rect x="576" y="0" width="4" height="40" fill="#2a332e"/><rect x="740" y="40" width="16" height="26" fill="#a462f0" opacity="0.95"/><circle cx="748" cy="53" r="46" fill="#a462f0" opacity="0.12"/><rect x="746" y="0" width="4" height="40" fill="#2a332e"/><rect x="199" y="87" width="8" height="8" fill="#a462f0" opacity="0.10"/><rect x="623" y="66" width="8" height="8" fill="#a462f0" opacity="0.23"/><rect x="727" y="188" width="8" height="8" fill="#a462f0" opacity="0.16"/><rect x="221" y="153" width="8" height="8" fill="#a462f0" opacity="0.18"/><rect x="580" y="314" width="8" height="8" fill="#a462f0" opacity="0.23"/><rect x="693" y="46" width="8" height="8" fill="#a462f0" opacity="0.21"/><rect x="543" y="276" width="8" height="8" fill="#a462f0" opacity="0.06"/><rect x="304" y="247" width="8" height="8" fill="#a462f0" opacity="0.17"/><rect x="50" y="175" width="8" height="8" fill="#a462f0" opacity="0.12"/><rect x="56" y="71" width="8" height="8" fill="#a462f0" opacity="0.15"/><rect x="267" y="204" width="8" height="8" fill="#a462f0" opacity="0.09"/><rect x="279" y="285" width="8" height="8" fill="#a462f0" opacity="0.18"/><rect x="568" y="270" width="8" height="8" fill="#a462f0" opacity="0.08"/><rect x="26" y="266" width="8" height="8" fill="#a462f0" opacity="0.07"/><rect x="174" y="54" width="8" height="8" fill="#a462f0" opacity="0.20"/><rect x="109" y="289" width="8" height="8" fill="#a462f0" opacity="0.06"/><rect x="545" y="250" width="8" height="8" fill="#a462f0" opacity="0.14"/><rect x="723" y="0" width="8" height="8" fill="#a462f0" opacity="0.06"/><rect x="47" y="95" width="8" height="8" fill="#a462f0" opacity="0.16"/><rect x="9" y="0" width="8" height="8" fill="#a462f0" opacity="0.07"/><rect x="102" y="7" width="8" height="8" fill="#a462f0" opacity="0.21"/><rect x="333" y="122" width="8" height="8" fill="#a462f0" opacity="0.15"/><rect x="514" y="163" width="8" height="8" fill="#a462f0" opacity="0.15"/><rect x="388" y="268" width="8" height="8" fill="#a462f0" opacity="0.09"/><rect x="735" y="180" width="8" height="8" fill="#a462f0" opacity="0.21"/><rect x="187" y="114" width="8" height="8" fill="#a462f0" opacity="0.09"/><rect x="40" y="120" width="170" height="54" fill="#0d1310" stroke="#a462f0" stroke-width="3"/><text x="125" y="153" text-anchor="middle" font-family="monospace" font-size="17" fill="#e7f2ea">Аметистова Гео</text><rect x="620" y="120" width="140" height="54" fill="#0d1310" stroke="#a462f0" stroke-width="3"/><text x="690" y="154" text-anchor="middle" font-family="monospace" font-size="20" fill="#a462f0">М5</text></svg>